<svg width="27" height="24" viewBox="0 0 27 24" fill="none" xmlns="http://www.w3.org/2000/svg">
<path d="M20.1518 21.62C19.1985 21.88 18.0718 22 16.7501 22H10.2501C8.92845 22 7.80178 21.88 6.84845 21.62C7.08678 19.02 9.97928 16.97 13.5001 16.97C17.021 16.97 19.9135 19.02 20.1518 21.62Z" stroke="black" stroke-linecap="round" stroke-linejoin="round"/>
<path d="M16.7501 2H10.2501C4.83345 2 2.66678 4 2.66678 9V15C2.66678 18.78 3.90178 20.85 6.84845 21.62C7.08678 19.02 9.97928 16.97 13.5001 16.97C17.0209 16.97 19.9134 19.02 20.1518 21.62C23.0984 20.85 24.3334 18.78 24.3334 15V9C24.3334 4 22.1668 2 16.7501 2ZM13.5001 14.17C11.3551 14.17 9.62178 12.56 9.62178 10.58C9.62178 8.60002 11.3551 7 13.5001 7C15.6451 7 17.3784 8.60002 17.3784 10.58C17.3784 12.56 15.6451 14.17 13.5001 14.17Z" stroke="black" stroke-linecap="round" stroke-linejoin="round"/>
<path d="M17.3785 10.58C17.3785 12.56 15.6451 14.17 13.5001 14.17C11.3551 14.17 9.6218 12.56 9.6218 10.58C9.6218 8.60002 11.3551 7 13.5001 7C15.6451 7 17.3785 8.60002 17.3785 10.58Z" stroke="black" stroke-linecap="round" stroke-linejoin="round"/>
</svg>
