<svg width="22" height="22" viewBox="0 0 22 22" fill="none" xmlns="http://www.w3.org/2000/svg">
<path d="M4 6C4 5.72386 4.29382 5.5 4.65625 5.5H9.97344C10.3359 5.5 11 5.72386 11 6C11 6.27614 10.7062 6.5 10.3438 6.5H4.65625C4.29382 6.5 4 6.27614 4 6Z" fill="#0FA958"/>
<path d="M4.5 8.5C4.22386 8.5 4 8.72386 4 9C4 9.27613 4.22386 9.5 4.5 9.5H7.5C7.77613 9.5 8 9.27613 8 9C8 8.72386 7.77613 8.5 7.5 8.5H4.5Z" fill="#0FA958"/>
<path d="M13.5 1.5H3C1.4 1.5 1 2.83333 1 3.5V19C1 20.2 2.33333 20.5 3 20.5H13C14.6 20.5 15 19.1667 15 18.5V3.5C15 2.3 14 1.66667 13.5 1.5Z" stroke="#0FA958" stroke-width="2"/>
<path d="M15.0001 3.50008C16.0001 3.33341 18.0001 3.30008 18.0001 4.50008M18.0001 4.50008C18.0001 5.70008 18.0001 13.6667 18.0001 17.5001M18.0001 4.50008C18.8335 4.3334 20.5001 4.30006 20.5001 5.50006C20.5001 6.70006 20.5001 12.6667 20.5001 15.5001C20.5001 16.1667 20.0001 17.5001 18.0001 17.5001M18.0001 17.5001C18.0001 17.8334 17.4001 18.5001 15.0001 18.5001" stroke="#0FA958" stroke-width="2"/>
</svg>
